HIERARCHY
ROOT Hips
{
	OFFSET	0.000000	0.000000	0.000000
	CHANNELS 6 Xposition Yposition Zposition Zrotation Xrotation Yrotation
	JOINT LeftUpLeg
	{
		OFFSET	12.830505	-7.049846	-1.643436
		CHANNELS 3 Zrotation Xrotation Yrotation
		JOINT LeftLeg
		{
			OFFSET	0.620834	-39.957500	-1.919341
			CHANNELS 3 Zrotation Xrotation Yrotation
			JOINT LeftFoot
			{
				OFFSET	-0.413890	-44.704761	-3.870325
				CHANNELS 3 Zrotation Xrotation Yrotation
				JOINT LeftFootHeel
				{
					OFFSET	0.164738	-8.918193	-6.555130
					CHANNELS 3 Zrotation Xrotation Yrotation
					End Site
					{
						OFFSET	-0.604053	0.000000	21.044330
					}
				}
			}
		}
	}
	JOINT RightUpLeg
	{
		OFFSET	-12.830505	-7.049846	-1.643436
		CHANNELS 3 Zrotation Xrotation Yrotation
		JOINT RightLeg
		{
			OFFSET	-0.620834	-39.957500	-1.919341
			CHANNELS 3 Zrotation Xrotation Yrotation
			JOINT RightFoot
			{
				OFFSET	0.413890	-44.704761	-3.870325
				CHANNELS 3 Zrotation Xrotation Yrotation
				JOINT RightFootHeel
				{
					OFFSET	-0.164738	-8.918193	-6.555130
					CHANNELS 3 Zrotation Xrotation Yrotation
					End Site
					{
						OFFSET	0.604053	0.000000	21.044330
					}
				}
			}
		}
	}
	JOINT Spine
	{
		OFFSET	0.000000	12.498170	1.820647
		CHANNELS 3 Zrotation Xrotation Yrotation
		JOINT Spine1
		{
			OFFSET	0.000000	7.620000	0.000000
			CHANNELS 3 Zrotation Xrotation Yrotation
			JOINT LeftShoulder
			{
				OFFSET	9.167800	29.136339	-5.551221
				CHANNELS 3 Zrotation Xrotation Yrotation
				JOINT LeftArm
				{
					OFFSET	12.133453	-3.880866	1.461963
					CHANNELS 3 Zrotation Xrotation Yrotation
					JOINT LeftForeArm
					{
						OFFSET	2.507115	-31.664908	-1.069404
						CHANNELS 3 Zrotation Xrotation Yrotation
						JOINT LeftHand
						{
							OFFSET	4.116172	-24.512624	5.009439
							CHANNELS 3 Zrotation Xrotation Yrotation
							End Site
							{
								OFFSET	-0.213136	-10.931856	2.182134
							}
						}
					}
				}
			}
			JOINT RightShoulder
			{
				OFFSET	-9.167800	29.136339	-5.551221
				CHANNELS 3 Zrotation Xrotation Yrotation
				JOINT RightArm
				{
					OFFSET	-12.133453	-3.880866	1.461963
					CHANNELS 3 Zrotation Xrotation Yrotation
					JOINT RightForeArm
					{
						OFFSET	-2.507115	-31.664908	-1.069404
						CHANNELS 3 Zrotation Xrotation Yrotation
						JOINT RightHand
						{
							OFFSET	-4.116172	-24.512624	5.009439
							CHANNELS 3 Zrotation Xrotation Yrotation
							End Site
							{
								OFFSET	0.213136	-10.931856	2.182134
							}
						}
					}
				}
			}
			JOINT Neck
			{
				OFFSET	0.000000	32.926272	-3.635654
				CHANNELS 3 Zrotation Xrotation Yrotation
				JOINT Head
				{
					OFFSET	0.000000	12.481178	4.646143
					CHANNELS 3 Zrotation Xrotation Yrotation
					End Site
					{
						OFFSET	0.000000	17.715204	-2.222063
					}
				}
			}
		}
	}
}
MOTION
Frames:     13
Frame Time: 0.016667
0.000000	103.017189	0.000000	0.030644	-2.572247	-2.810812	-2.705732	-1.942451	3.226167	2.187736	8.781283	-3.487376	0.741912	-4.727609	0.184870	0.	0.	0.	0.883701	-3.687626	3.629096	-1.317507	10.347488	4.258558	-0.446650	-5.181088	-1.420852	0.	0.	0.	0.000000	0.000000	0.000002	-1.318076	2.584543	1.507499	0.683779	0.495957	2.183514	2.298056	2.437737	5.277904	-9.336540	-18.347088	-4.099333	8.090730	3.542996	-11.789124	2.407856	2.109035	1.971228	-2.929144	-0.371054	-7.747613	4.593209	-11.655032	10.037862	-4.031486	3.528467	7.039590	1.444916	3.382724	2.243676	3.719333	-2.020205	1.355100	
0.003080	103.016278	0.005460	0.030644	-2.572247	-2.810812	-2.705732	-1.942451	3.226167	2.187736	8.781283	-3.487376	0.741912	-4.727609	0.184870	0.	0.	0.	0.883701	-3.687626	3.629096	-1.321233	10.354588	4.261645	-0.443747	-5.188420	-1.423339	0.	0.	0.	0.000000	0.000000	0.000002	-1.318076	2.584543	1.507499	0.683779	0.495957	2.183514	2.298056	2.437737	5.277904	-9.336540	-18.347088	-4.099333	8.090730	3.542996	-11.789124	2.407856	2.109035	1.971228	-2.929144	-0.371054	-7.747613	4.593209	-11.655032	10.037862	-4.031486	3.528467	7.039590	1.444916	3.382724	2.243676	3.719333	-2.020205	1.355100	
0.025748	103.014457	0.014592	0.030225	-2.572249	-2.814019	-2.705206	-1.942578	3.229355	2.175521	8.792334	-3.484170	0.754533	-4.737920	0.183662	0.	0.	0.	0.859838	-3.690794	3.632433	-1.303047	10.369101	4.265542	-0.438525	-5.201631	-1.427855	0.	0.	0.	0.000000	0.000000	0.000002	-1.322316	2.563219	1.508215	0.688825	0.517136	2.185936	2.298697	2.438215	5.271057	-9.335012	-18.348604	-4.092317	8.091078	3.542123	-11.796654	2.417001	2.112927	1.964212	-2.951835	-0.387409	-7.736640	4.609339	-11.628192	10.034932	-4.055140	3.454891	7.026600	1.409050	3.398296	2.234800	3.760718	-2.015297	1.368256	
0.036677	103.013061	0.023392	0.028545	-2.572237	-2.827005	-2.703091	-1.943117	3.242262	2.175521	8.792334	-3.484170	0.754533	-4.737920	0.183662	0.	0.	0.	0.851597	-3.691956	3.645438	-1.296571	10.378360	4.268490	-0.435051	-5.210413	-1.430840	0.	0.	0.	0.000000	0.000000	0.000002	-1.324086	2.549440	1.519554	0.692037	0.530626	2.187484	2.298697	2.438215	5.271057	-9.335012	-18.348604	-4.092317	8.091078	3.542123	-11.796654	2.420843	2.123702	1.963957	-2.964247	-0.408768	-7.733894	4.633636	-11.658192	10.043399	-4.076483	3.457136	7.013282	1.381481	3.401917	2.248963	3.791338	-2.007357	1.356742	
0.036601	103.012994	0.024112	0.028131	-2.572226	-2.830227	-2.702569	-1.943258	3.245465	2.175521	8.792334	-3.484170	0.754533	-4.737920	0.183662	0.	0.	0.	0.852217	-3.691897	3.648649	-1.296571	10.378360	4.268490	-0.435051	-5.210413	-1.430840	0.	0.	0.	0.000000	0.000000	0.000003	-1.324477	2.546263	1.522402	0.692777	0.533725	2.187836	2.298697	2.438215	5.271057	-9.335012	-18.348604	-4.092317	8.091078	3.542123	-11.796654	2.421576	2.126811	1.964216	-2.976447	-0.433615	-7.732622	4.656385	-11.681914	10.049819	-4.092080	3.472176	7.003638	1.349035	3.394340	2.263084	3.824409	-1.998796	1.344300	
0.036601	103.012994	0.024112	0.028131	-2.572226	-2.830227	-2.702569	-1.943258	3.245465	2.175521	8.792334	-3.484170	0.754533	-4.737920	0.183662	0.	0.	0.	0.852217	-3.691897	3.648649	-1.296571	10.378360	4.268490	-0.435051	-5.210413	-1.430840	0.	0.	0.	0.000000	0.000000	0.000003	-1.324477	2.546263	1.522402	0.692777	0.533725	2.187836	2.298697	2.438215	5.271057	-9.335012	-18.348604	-4.092317	8.091078	3.542123	-11.796654	2.421576	2.126811	1.964216	-2.994008	-0.470624	-7.730680	4.669453	-11.649098	10.045543	-4.097610	3.460883	6.999995	1.305068	3.380131	2.281365	3.868255	-1.987417	1.327807	
0.036601	103.012994	0.024112	0.028131	-2.572226	-2.830227	-2.702569	-1.943258	3.245465	2.175521	8.792334	-3.484170	0.754533	-4.737920	0.183662	0.	0.	0.	0.852217	-3.691897	3.648649	-1.296571	10.378360	4.268490	-0.435051	-5.210413	-1.430840	0.	0.	0.	0.000000	0.000000	0.000003	-1.324477	2.546263	1.522402	0.692777	0.533725	2.187836	2.298697	2.438215	5.271057	-9.335012	-18.348604	-4.092317	8.091078	3.542123	-11.796654	2.421576	2.126811	1.964216	-3.000663	-0.493400	-7.729070	4.673979	-11.631761	10.042987	-4.097793	3.443149	6.997907	1.287124	3.374318	2.288821	3.886152	-1.982767	1.321074	
0.036601	103.012994	0.024112	0.028131	-2.572226	-2.830227	-2.702569	-1.943258	3.245465	2.175521	8.792334	-3.484170	0.754533	-4.737920	0.183662	0.	0.	0.	0.852217	-3.691897	3.648649	-1.296571	10.378360	4.268490	-0.435051	-5.210413	-1.430840	0.	0.	0.	0.000000	0.000000	0.000003	-1.324477	2.546263	1.522402	0.692777	0.533725	2.187836	2.298697	2.438215	5.271057	-9.335012	-18.348604	-4.092317	8.091078	3.542123	-11.796654	2.421576	2.126811	1.964216	-2.998870	-0.503056	-7.727908	4.671982	-11.629701	10.048790	-4.082869	3.445525	6.996305	1.287124	3.374318	2.288821	3.886152	-1.982767	1.321074	
0.036601	103.012994	0.024112	0.028131	-2.572226	-2.830227	-2.701607	-1.941622	3.256328	2.176133	8.790346	-3.495060	0.754533	-4.737920	0.183662	0.	0.	0.	0.852217	-3.691897	3.648649	-1.296571	10.378360	4.268490	-0.435051	-5.210413	-1.430840	0.	0.	0.	0.000000	0.000000	0.000003	-1.324477	2.546263	1.522402	0.692777	0.533725	2.187836	2.298040	2.437734	5.278027	-9.336563	-18.347065	-4.099460	8.091078	3.542123	-11.796654	2.421576	2.126811	1.964216	-2.994171	-0.528284	-7.724884	4.668140	-11.641634	10.105543	-4.061684	3.469631	6.992777	1.287124	3.374318	2.288821	3.886152	-1.982767	1.321074	
0.036601	103.012994	0.024112	0.028131	-2.572226	-2.830227	-2.699295	-1.937675	3.282541	2.177615	8.785547	-3.521340	0.754533	-4.737920	0.183662	0.	0.	0.	0.852217	-3.691897	3.648649	-1.296571	10.378360	4.268490	-0.435051	-5.210413	-1.430840	0.	0.	0.	0.000000	0.000000	0.000003	-1.324477	2.546263	1.522402	0.692777	0.533725	2.187836	2.297346	2.437222	5.285408	-9.338208	-18.345432	-4.107027	8.091078	3.542123	-11.796654	2.421576	2.126811	1.964216	-2.991500	-0.542620	-7.723156	4.658960	-11.624993	10.135174	-4.038600	3.454195	7.002176	1.269994	3.368802	2.295948	3.903239	-1.978366	1.314638	
0.036601	103.012994	0.024112	0.028131	-2.572226	-2.830227	-2.697901	-1.935295	3.298339	2.178508	8.782654	-3.537179	0.754533	-4.737920	0.183662	0.	0.	0.	0.852217	-3.691897	3.648649	-1.296571	10.378360	4.268490	-0.435051	-5.210413	-1.430840	0.	0.	0.	0.000000	0.000000	0.000003	-1.324477	2.546263	1.522402	0.692777	0.533725	2.187836	2.294128	2.434872	5.319502	-9.345788	-18.337906	-4.141978	8.091078	3.542123	-11.796654	2.421576	2.126811	1.964216	-2.989945	-0.552308	-7.718722	4.657785	-11.630446	10.148575	-4.030769	3.460634	6.995439	1.242577	3.359989	2.307345	3.909822	-1.962349	1.324836	
0.036601	103.012994	0.024112	0.028131	-2.572226	-2.830227	-2.696431	-1.932765	3.315143	2.179466	8.779576	-3.554026	0.754533	-4.737920	0.183662	0.	0.	0.	0.852217	-3.691897	3.648649	-1.296571	10.378360	4.268490	-0.435051	-5.210413	-1.430840	0.	0.	0.	0.000000	0.000000	0.000003	-1.334435	2.548148	1.524602	0.700505	0.532427	2.188569	2.294612	2.432532	5.335859	-9.349961	-18.333767	-4.161211	8.091078	3.542123	-11.796654	2.431534	2.124589	1.962551	-2.991299	-0.550868	-7.704425	4.659839	-11.649320	10.152079	-4.016262	3.460226	6.983339	1.222785	3.348254	2.318009	3.889490	-1.933102	1.363058	
0.036601	103.012994	0.024112	0.028131	-2.572226	-2.830227	-2.695660	-1.931432	3.323987	2.179972	8.777957	-3.562892	0.754533	-4.737920	0.183662	0.	0.	0.	0.852217	-3.691897	3.648649	-1.296571	10.378360	4.268490	-0.435051	-5.210413	-1.430840	0.	0.	0.	0.000000	0.000000	0.000003	-1.349101	2.550920	1.527843	0.705703	0.532969	2.196628	2.302602	2.426796	5.343462	-9.353951	-18.329809	-4.179626	8.091078	3.542123	-11.796654	2.446196	2.121320	1.960096	-2.993043	-0.549001	-7.685910	4.656930	-11.654321	10.151286	-3.997730	3.456499	6.974591	1.199451	3.333399	2.331392	3.877542	-1.916224	1.466417	
